<svg width="24" height="24" viewBox="0 0 24 24" fill="none" xmlns="http://www.w3.org/2000/svg">
<path d="M15.501 17.75L16.7944 19.5205C16.9158 19.7127 17.1491 19.7985 17.3621 19.7224C18.1659 19.4353 20.1582 18.6572 21.7986 17.4725C21.9265 17.3801 22.0004 17.2261 21.9994 17.0673C21.9994 8.25 19.501 5.75 19.501 5.75C19.501 5.75 17.501 4.60213 15.3549 4.25602C15.1438 4.22196 14.937 4.33509 14.8431 4.52891L14.3981 5.44677C14.3981 5.44677 13.2855 5.21397 12.0002 5.21397C10.7149 5.21397 9.60229 5.44677 9.60229 5.44677L9.1573 4.52891C9.06333 4.33509 8.85663 4.22196 8.64548 4.25602C6.50098 4.60187 4.50098 5.75 4.50098 5.75C4.50098 5.75 2.00099 8.25 2.00099 17.0673C1.99999 17.2261 2.07384 17.3801 2.20178 17.4725C3.84215 18.6572 5.83449 19.4353 6.63825 19.7224C6.85124 19.7985 7.08456 19.7127 7.20601 19.5205L8.50098 17.75" stroke="black" stroke-width="1.5" stroke-linecap="round" stroke-linejoin="round"/>
<path d="M17.501 16.75C17.501 16.75 15.2059 18.25 12.001 18.25C8.79606 18.25 6.50098 16.75 6.50098 16.75" stroke="black" stroke-width="1.5" stroke-linecap="round" stroke-linejoin="round"/>
<path d="M17.251 12.25C17.251 13.3546 16.4675 14.25 15.501 14.25C14.5345 14.25 13.751 13.3546 13.751 12.25C13.751 11.1454 14.5345 10.25 15.501 10.25C16.4675 10.25 17.251 11.1454 17.251 12.25Z" stroke="black" stroke-width="1.5"/>
<path d="M10.251 12.25C10.251 13.3546 9.46748 14.25 8.50098 14.25C7.53449 14.25 6.75098 13.3546 6.75098 12.25C6.75098 11.1454 7.53449 10.25 8.50098 10.25C9.46748 10.25 10.251 11.1454 10.251 12.25Z" stroke="black" stroke-width="1.5"/>
</svg>
