<svg width="24" height="24" viewBox="0 0 24 24" fill="none" xmlns="http://www.w3.org/2000/svg">
<path d="M15 8C15 9.65685 13.6569 11 12 11C10.3431 11 9 9.65685 9 8C9 6.34315 10.3431 5 12 5C13.6569 5 15 6.34315 15 8Z" stroke="black" stroke-width="1.5" stroke-linecap="round" stroke-linejoin="round"/>
<path d="M16 4C17.6569 4 19 5.34315 19 7C19 8.22309 18.2681 9.27523 17.2183 9.7423" stroke="black" stroke-width="1.5" stroke-linecap="round" stroke-linejoin="round"/>
<path d="M13.7143 14H10.2857C7.91878 14 6 15.9188 6 18.2857C6 19.2325 6.76751 20 7.71428 20H16.2857C17.2325 20 18 19.2325 18 18.2857C18 15.9188 16.0812 14 13.7143 14Z" stroke="black" stroke-width="1.5" stroke-linecap="round" stroke-linejoin="round"/>
<path d="M17.7139 13C20.0808 13 21.9996 14.9188 21.9996 17.2857C21.9996 18.2325 21.2321 19 20.2853 19" stroke="black" stroke-width="1.5" stroke-linecap="round" stroke-linejoin="round"/>
<path d="M8 4C6.34315 4 5 5.34315 5 7C5 8.22309 5.73193 9.27523 6.78168 9.7423" stroke="black" stroke-width="1.5" stroke-linecap="round" stroke-linejoin="round"/>
<path d="M3.71429 19C2.76751 19 2 18.2325 2 17.2857C2 14.9188 3.91878 13 6.28571 13" stroke="black" stroke-width="1.5" stroke-linecap="round" stroke-linejoin="round"/>
</svg>
